inDegrees=yes
name=ik_Shooting_orientations
DataType=double
version=3
OpenSimVersion=4.3-2021-08-27-4bc7ad9
endheader
time	pelvis_tilt	pelvis_list	pelvis_rotation	pelvis_tx	pelvis_ty	pelvis_tz	hip_flexion_r	hip_adduction_r	hip_rotation_r	knee_angle_r	knee_angle_r_beta	ankle_angle_r	subtalar_angle_r	mtp_angle_r	hip_flexion_l	hip_adduction_l	hip_rotation_l	knee_angle_l	knee_angle_l_beta	ankle_angle_l	subtalar_angle_l	mtp_angle_l	lumbar_extension	lumbar_bending	lumbar_rotation	arm_flex_r	arm_add_r	arm_rot_r	elbow_flex_r	pro_sup_r	wrist_flex_r	wrist_dev_r	arm_flex_l	arm_add_l	arm_rot_l	elbow_flex_l	pro_sup_l	wrist_flex_l	wrist_dev_l
5	0.7767605807857845	-0.2403493825870895	152.0279423389464	0	0.9399999999999999	0	22.48408367981485	-9.742710839919598	0	43.00689122567041	0.7506118529350082	-5.468722666198542	0	0	22.48408367981485	-9.742710839919598	0	43.00689122567041	0.7506118529350082	-5.468722666198542	0	0	9.832010665209481	-7.653608013903961	-8.63782747758516	0	-3.319985269342806	0	60.51760513589025	53.02450725332523	0	0	-55.57995728302937	-14.89663956909542	-13.02752734200338	0.002464632104119517	53.02450725332523	0	0
5.01	0.7745177612546855	-0.2332534852004558	152.0167582758683	0	0.9399999999999999	0	22.49158481800781	-9.742984054226348	0	43.01128020762999	0.7506884551210136	-5.468073076837826	0	0	22.49158481800781	-9.742984054226348	0	43.01128020762999	0.7506884551210136	-5.468073076837826	0	0	9.814025021761299	-7.635388068968048	-8.612072632537801	0	-3.321819436464859	0	60.52216692173863	53.0175496703998	0	0	-55.80474263447036	-14.94057394765835	-14.3537552058765	0.002452534318870496	53.0175496703998	0	0
5.02	0.7801473702513723	-0.2422891188879202	152.0051840215679	0	0.9399999999999999	0	22.49733868676224	-9.743193216841323	0	43.01465186440997	0.7507473016330715	-5.467576066414258	0	0	22.49733868676224	-9.743193216841323	0	43.01465186440997	0.7507473016330715	-5.467576066414258	0	0	9.823476112336401	-7.626140523800295	-8.592563973634382	0	-3.32322837503034	0	60.52566685417705	53.01222148074056	0	0	-56.03994840526665	-15.05648213844789	-14.82966850577015	0.002441099494263672	53.01222148074056	0	0
5.03	0.7967482264315634	-0.2553443837286649	152.0033828215678	0	0.9399999999999999	0	22.50449544540355	-9.74345366495772	0	43.01883889892356	0.7508203791712282	-5.466957133941683	0	0	22.50449544540355	-9.74345366495772	0	43.01883889892356	0.7508203791712282	-5.466957133941683	0	0	9.840029999412307	-7.646818341386052	-8.578565622640467	0	-3.324978643307585	0	60.53001951813751	53.00558771202463	0	0	-56.6894721583431	-14.76383432829272	-13.83602353588298	0.002409204827383983	53.00558771202463	0	0
5.04	0.7747481971164353	-0.2677262527761607	152.0234884660471	0	0.9399999999999999	0	22.5079538822084	-9.743579056894973	0	43.02086874406445	0.7508558066522424	-5.466659442755551	0	0	22.5079538822084	-9.743579056894973	0	43.02086874406445	0.7508558066522424	-5.466659442755551	0	0	9.809011707259923	-7.678671867787444	-8.593466040744644	0	-3.325826899111177	0	60.53212375248088	53.0023920107943	0	0	-57.12588109719823	-14.77377323819732	-13.25297169615321	0.002388114356525525	53.0023920107943	0	0
5.05	0.8188173008827765	-0.283561522675719	152.0037575240831	0	0.9399999999999999	0	22.5135588739712	-9.743781238419219	0	43.0241746881069	0.7509135062606698	-5.466180021443702	0	0	22.5135588739712	-9.743781238419219	0	43.0241746881069	0.7509135062606698	-5.466180021443702	0	0	9.865231099502367	-7.647336642565	-8.544649791251446	0	-3.327207655415007	0	60.53553602586266	52.99723531628008	0	0	-56.88749764214448	-14.99363701008705	-13.34621976492484	0.002399193198543653	52.99723531628008	0	0
5.06	0.8321338753170071	-0.2958570028263612	152.0078791158871	0	0.9399999999999999	0	22.51760243732978	-9.743926250793788	0	43.02657272326108	0.7509553598696889	-5.465836638408147	0	0	22.51760243732978	-9.743926250793788	0	43.02657272326108	0.7509553598696889	-5.465836638408147	0	0	9.862543553242165	-7.657819386896662	-8.534965390108365	0	-3.328208592295303	0	60.53799932288229	52.99353345767224	0	0	-56.79963882838297	-15.05939171581969	-13.31182388106408	0.002403207989598665	52.99353345767224	0	0
5.07	0.8452752516328675	-0.2847721312958032	152.0219235918027	0	0.9399999999999999	0	22.5207548107253	-9.744039697665388	0	43.02843500204284	0.7509878627660206	-5.465567827262941	0	0	22.5207548107253	-9.744039697665388	0	43.02843500204284	0.7509878627660206	-5.465567827262941	0	0	9.879079323496127	-7.623801865224369	-8.526263052314015	0	-3.328986364138184	0	60.53991891803337	52.99063879734715	0	0	-56.61972755396624	-15.32810047654439	-13.6206034385566	0.002412959591937951	52.99063879734715	0	0
5.08	0.8314863872475826	-0.2956688790250319	152.0316369110471	0	0.9399999999999999	0	22.52798578757971	-9.74430188133846	0	43.03267351756208	0.7510618388172282	-5.464945621440581	0	0	22.52798578757971	-9.74430188133846	0	43.03267351756208	0.7510618388172282	-5.464945621440581	0	0	9.834009985988086	-7.643704618498872	-8.515555705379217	0	-3.330758578849712	0	60.54431834698452	52.98395634334639	0	0	-56.34237835365384	-15.6290270601981	-14.18886419072004	0.002424438640074936	52.98395634334639	0	0
5.09	0.8410019244924858	-0.306740925939638	152.0439485332162	0	0.9399999999999999	0	22.53044784390542	-9.744388812194652	0	43.0341542043431	0.7510876816767478	-5.464740564486047	0	0	22.53044784390542	-9.744388812194652	0	43.0341542043431	0.7510876816767478	-5.464740564486047	0	0	9.882831168123969	-7.659925851593166	-8.520080894529793	0	-3.331375666758174	0	60.54582076563165	52.98173178424843	0	0	-56.23701473191494	-15.70270936859536	-14.31036674885106	0.002432099841409618	52.98173178424843	0	0
